<?xml version="1.0" standalone="no"?>
<!DOCTYPE svg PUBLIC "-//W3C//DTD SVG 20010904//EN"
 "http://www.w3.org/TR/2001/REC-SVG-20010904/DTD/svg10.dtd">
<svg version="1.0" xmlns="http://www.w3.org/2000/svg"
 width="119.000000pt" height="119.000000pt" viewBox="0 0 119.000000 119.000000"
 preserveAspectRatio="xMidYMid meet">

<g transform="translate(0.000000,119.000000) scale(0.100000,-0.100000)"
fill="#000000" stroke="none">
<path d="M474 1141 c-103 -26 -177 -92 -216 -190 -18 -47 -22 -76 -22 -176 0
-106 3 -132 32 -229 30 -103 39 -183 26 -233 -4 -15 -21 -26 -57 -38 -86 -28
-104 -46 -131 -137 -14 -45 -23 -85 -20 -90 7 -11 1011 -11 1018 1 9 14 -42
153 -66 178 -12 13 -48 33 -80 44 l-58 22 0 57 c0 32 12 102 27 156 23 85 27
119 27 239 1 121 -2 147 -21 194 -41 100 -88 147 -183 186 -50 20 -223 30
-276 16z m7 -285 c63 -60 163 -105 283 -127 l68 -13 -5 -53 c-11 -107 -81
-216 -162 -254 -51 -23 -89 -23 -141 0 -110 50 -189 240 -154 371 10 38 48
130 54 130 1 0 27 -24 57 -54z m-94 -402 l-10 -49 -15 35 c-14 34 -11 107 5
133 15 25 31 -69 20 -119z m452 41 c0 -57 -12 -95 -23 -77 -14 23 -18 107 -6
137 11 28 13 28 20 10 5 -11 9 -42 9 -70z m-281 -127 c24 -7 47 -5 85 6 28 8
52 14 53 13 1 -1 4 -21 7 -44 4 -38 3 -43 -14 -43 -10 0 -19 -5 -19 -10 0 -13
-48 -33 -80 -33 -28 0 -66 15 -92 36 -23 19 -14 102 11 91 9 -3 31 -10 49 -16z
m-96 -95 c2 -18 10 -29 23 -32 11 -2 25 -10 31 -19 7 -9 18 -13 29 -8 10 3 24
1 31 -5 11 -9 17 -9 28 0 7 6 20 9 28 6 23 -9 87 36 88 61 l0 22 95 -23 c53
-12 98 -25 102 -29 10 -10 -101 -56 -174 -71 -87 -19 -209 -19 -296 0 -70 15
-184 61 -175 71 5 4 161 51 180 53 4 1 8 -11 10 -26z m38 -3 c0 -5 -4 -10 -10
-10 -5 0 -10 5 -10 10 0 6 5 10 10 10 6 0 10 -4 10 -10z m200 0 c0 -5 -2 -10
-4 -10 -3 0 -8 5 -11 10 -3 6 -1 10 4 10 6 0 11 -4 11 -10z m-40 -30 c0 -5 -4
-10 -10 -10 -5 0 -10 5 -10 10 0 6 5 10 10 10 6 0 10 -4 10 -10z m-60 -10 c0
-5 -4 -10 -10 -10 -5 0 -10 5 -10 10 0 6 5 10 10 10 6 0 10 -4 10 -10z"/>
</g>
</svg>
