<?xml version="1.0" standalone="no"?>
<!DOCTYPE svg PUBLIC "-//W3C//DTD SVG 20010904//EN"
 "http://www.w3.org/TR/2001/REC-SVG-20010904/DTD/svg10.dtd">
<svg version="1.0" xmlns="http://www.w3.org/2000/svg"
 width="225.000000pt" height="225.000000pt" viewBox="0 0 225.000000 225.000000"
 preserveAspectRatio="xMidYMid meet">

<g transform="translate(0.000000,225.000000) scale(0.100000,-0.100000)"
fill="#000000" stroke="none">
<path d="M1075 2183 c-11 -3 -67 -18 -125 -35 -69 -20 -118 -28 -142 -25 l-38
5 0 -54 0 -53 -50 -22 c-27 -12 -50 -23 -50 -24 0 -1 -11 -28 -25 -60 l-26
-57 27 6 c20 5 25 4 21 -6 -23 -61 -28 -136 -16 -224 10 -77 10 -98 -1 -118
-38 -73 46 -316 110 -316 11 0 32 -24 58 -67 54 -92 115 -158 176 -193 64 -37
156 -41 224 -10 78 36 222 197 246 278 4 12 13 22 21 22 22 0 74 49 94 89 26
51 45 144 36 177 -4 16 -6 76 -6 134 2 131 -10 193 -60 297 -47 98 -110 166
-193 206 -88 43 -214 66 -281 50z m-147 -473 c29 -11 71 -20 94 -20 34 0 52
-8 100 -46 59 -46 66 -46 47 3 l-10 28 35 -34 36 -35 0 47 c0 52 10 60 30 23
15 -29 68 -52 138 -62 76 -10 77 -12 74 -106 -5 -142 -27 -251 -67 -326 -46
-88 -115 -175 -166 -209 -53 -35 -140 -43 -203 -19 -55 21 -130 100 -180 188
-33 59 -38 80 -51 188 -8 67 -17 130 -20 140 -3 11 3 36 14 57 18 35 40 106
55 176 8 32 7 32 74 7z"/>
<path d="M690 933 c-191 -18 -337 -53 -382 -91 -50 -42 -68 -94 -68 -197 0
-52 -13 -163 -30 -265 -16 -96 -30 -181 -30 -188 0 -22 160 -90 265 -111 151
-31 525 -55 525 -33 0 4 -9 36 -20 72 -51 165 -93 425 -126 768 l-5 52 -47 -2
c-26 0 -63 -3 -82 -5z"/>
<path d="M1470 898 c0 -77 -102 -657 -147 -835 -5 -23 -4 -23 91 -23 211 0
413 37 534 98 40 20 75 39 78 43 2 4 -10 88 -26 188 -17 100 -30 218 -30 264
0 45 -5 99 -11 120 -16 58 -66 101 -148 126 -75 23 -242 51 -303 51 -36 0 -38
-2 -38 -32z"/>
<path d="M1051 823 c-34 -123 -36 -142 -12 -167 l22 -23 -20 -261 c-12 -143
-21 -276 -21 -296 l0 -36 105 0 105 0 0 38 c0 21 -9 155 -21 297 l-20 258 20
21 c26 27 26 32 0 128 l-21 78 -64 0 -63 0 -10 -37z"/>
</g>
</svg>
